<?xml version="1.0" encoding="UTF-8" standalone="no"?>
<svg width="287px" height="416px" viewBox="0 0 287 416" version="1.1" xmlns="http://www.w3.org/2000/svg" xmlns:xlink="http://www.w3.org/1999/xlink" xmlns:sketch="http://www.bohemiancoding.com/sketch/ns">
    <title>indiana_map</title>
    <description>Created with Sketch (http://www.bohemiancoding.com/sketch)</description>
    <defs></defs>
    <g id="Page-1" stroke="none" stroke-width="1" fill="none" fill-rule="evenodd" sketch:type="MSPage">
        <g id="indiana_map" sketch:type="MSLayerGroup" fill="#E3E3E3">
            <path d="M283.877,268.027 C283.877,269.33 283.918,270.888 283.877,272.369 C283.834,273.861 284.033,275.539 283.795,276.537 C283.539,277.576 282.018,278.305 281.236,279.004 C280.953,279.262 280.826,279.666 280.556,279.942 C279.839,280.692 278.769,281.364 278.175,282.323 C279.734,284.829 281.386,286.567 282.343,288.62 C282.739,289.466 283.206,290.575 283.027,291.431 C282.863,292.212 281.968,292.663 281.41,293.218 C280.789,293.831 280.312,294.35 279.789,294.921 C279.652,295.821 280.105,296.398 279.877,297.136 C281.939,298.06 284.492,297.519 285.836,299.005 C286.309,299.532 287.129,300.425 286.77,301.898 C286.612,302.552 285.559,303.054 284.897,303.689 C284.422,304.142 283.356,304.97 283.196,305.559 C283.051,306.085 283.102,307.396 283.196,308.029 C283.261,308.453 283.716,308.975 283.622,309.388 C283.507,309.919 282.718,309.96 282.431,310.411 C280.158,310.264 277.552,309.948 275.451,310.411 C273.467,310.85 271.34,311.665 269.498,311.007 C267.84,311.382 266.6,312.489 265.152,313.302 C263.808,314.068 262.357,314.725 260.9,315.603 C257.556,317.621 255.384,321.331 249.58,320.456 C249.142,320.384 248.957,320.095 248.391,320.114 C247.203,318.368 245.782,316.655 244.305,315.349 C243.963,315.043 241.707,314.933 241.073,315.008 C240.374,315.088 239.604,315.381 238.86,315.516 C236.516,315.944 234.104,315.915 231.967,315.434 C230.481,316.391 229.041,317.618 228.901,319.942 C228.848,320.809 228.926,322.106 229.155,322.835 C229.364,323.493 230.149,324.001 230.346,324.88 C230.553,325.777 230.186,327.064 230.346,328.2 C230.68,330.501 232.287,332.208 231.792,334.495 C231.506,335.833 229.812,336.901 228.9,337.813 C228.283,338.434 227.632,339.186 227.027,339.94 C226.146,341.047 224.826,343.68 223.453,344.28 C222.826,344.553 221.906,344.438 221.158,344.538 C219.15,344.817 216.9,345.122 215.627,346.413 C214.687,347.358 214.367,348.921 213.754,350.327 C213.08,351.866 213.244,353.546 212.815,355.175 C212.057,358.06 209.167,361.32 206.856,362.751 C206.499,362.976 205.743,363.167 205.073,363.431 C204.356,363.716 203.608,364.152 202.942,364.023 C201.448,363.75 201.03,361.998 199.374,361.986 C198.46,361.982 197.821,362.793 197.075,362.836 C195.759,363.945 195.915,365.871 195.116,367.685 C194.446,369.209 193.243,369.84 192.136,371.01 C191.345,371.844 190.04,373.162 189.837,374.58 C189.649,375.904 189.718,377.541 189.755,378.922 C189.775,379.685 190.025,380.397 190.009,381.133 C189.958,383.301 188.958,385.088 188.732,387.01 C188.05,387.92 187.129,388.762 186.181,389.645 C185.345,390.418 184.388,391.489 183.288,391.858 C181.983,392.296 180.474,392.192 179.116,392.88 C178.87,393.477 178.302,394.04 178.522,394.835 C177.567,394.905 177.051,395.411 176.391,395.776 C174.985,393.805 173.44,391.969 171.37,390.665 C169.349,390.397 167.333,391.181 165.583,390.839 C164.11,390.548 162.507,389.511 161.157,388.538 C159.37,387.255 157.513,386.36 156.735,384.282 C156.229,381.807 157.161,379.395 157.159,377.305 C156.35,376.36 155.737,375.06 154.604,374.413 C154.208,374.186 153.721,374.118 153.329,373.901 C152.134,373.241 151.331,372.188 150.183,371.516 C148.937,372.114 148.74,372.903 149.757,373.815 C150.261,374.266 150.605,374.835 151.456,374.835 C151.686,375.436 151.979,375.956 152.395,376.368 C151.946,376.891 151.383,377.288 150.862,377.729 C150.168,377.663 149.421,377.956 148.731,377.815 C147.805,378.29 147.696,379.31 146.776,379.774 C145.393,380.462 143.63,379.549 141.924,380.2 C142.317,381.229 143.625,382.077 144.051,383.352 C144.006,383.885 143.764,384.274 144.051,384.707 C143.09,385.816 142.194,386.986 141.156,388.027 C140.508,388.048 139.842,388.004 139.203,388.027 C138.68,388.048 137.822,388.004 137.498,388.117 C136.893,388.314 136.777,388.939 136.309,389.219 C135.911,390.851 135.957,393.096 136.055,394.752 C136.16,395.81 137.891,397.443 137.67,398.834 C137.603,399.264 136.893,399.963 136.648,400.111 C136.066,400.461 134.828,400.629 133.923,400.619 C131.943,400.609 130.286,400.326 129.329,401.559 C128.626,402.796 128.985,404.684 128.306,405.904 C128.036,406.384 126.683,407.523 126.009,407.6 C125.407,407.669 124.916,407.185 124.224,407.431 C124.128,406.62 123.443,406.386 123.288,405.646 C123.059,404.548 124.095,403.312 123.71,402.068 C123.479,401.312 122.421,401.045 121.751,401.302 C120.666,401.72 119.759,403.45 118.265,403.341 C117.199,403.271 115.576,401.573 114.777,400.198 C114.101,399.034 113.763,397.612 113.244,396.706 C112.736,395.823 111.42,395.259 111.969,393.899 C111.364,393.53 110.785,392.618 110.012,392.454 C109.215,392.276 108.774,392.829 107.965,393.046 C107.048,394.341 105.913,395.585 104.563,396.62 C103.364,397.546 101.747,398.671 99.967,398.917 C99.428,398.993 98.842,398.866 98.266,398.917 C96.053,399.124 94.469,400.434 92.479,400.876 C91.971,401.7 91.436,401.968 91.118,402.751 C90.471,404.331 91.313,406.368 90.86,408.366 C90.708,409.046 89.971,409.442 89.672,409.983 C89.34,410.579 89.264,411.301 88.907,411.856 C88.09,413.102 85.838,415.438 83.376,414.409 C82.077,413.866 82.108,412.46 81.417,411.089 C80.438,409.155 78.756,408.441 76.139,408.366 C72.93,407.276 70.657,404.44 67.543,402.663 C66.073,401.823 64.46,401.034 62.948,400.11 C61.409,399.172 59.733,398.288 57.924,398.065 C56.024,397.835 54.561,398.522 53.588,399.34 C53.042,399.805 52.766,400.5 51.969,400.785 C51.59,400.93 50.948,400.935 50.44,401.043 C49.485,401.246 48.778,401.49 47.543,401.301 C46.725,397.895 43.784,396.611 41.843,394.324 C41.442,394.459 41.274,394.832 40.821,394.918 C41.3,397.139 40.095,398.824 40.481,400.279 C40.655,400.935 41.526,401.357 41.843,401.982 C42.013,402.314 42.042,402.923 42.183,403.429 C42.444,404.363 42.88,404.98 42.692,406.407 C41.991,407.575 40.689,408.151 39.886,409.216 C38.823,409.474 37.548,409.402 36.566,409.13 C35.169,407.837 36.326,404.927 35.972,403.003 C34.828,401.81 31.244,402.378 29.334,402.491 C28.908,403.444 27.455,404.12 26.439,404.788 C24.715,405.229 23.133,404.749 21.674,404.536 C20.379,403.163 19.368,401.511 17.676,400.536 C15.863,400.397 15.056,401.264 14.27,402.149 C14.207,403.409 14.362,404.889 14.27,405.901 C14.553,406.579 15.657,406.768 15.887,407.597 C16.268,408.983 15.86,410.536 15.8,411.936 C14.318,413.208 12.589,414.227 11.207,415.597 C9.768,414.709 8.35,413.801 7.035,412.787 C5.218,412.717 3.531,412.119 1.674,412.361 C0.647,411.73 -0.134,410.433 0.313,409.043 C0.761,409.158 0.855,408.651 1.164,408.621 C2.063,408.519 3.211,409.603 3.97,409.556 C4.426,409.524 4.605,409.104 5.078,408.959 C4.593,407.535 3.234,406.847 2.356,405.723 C1.266,404.34 0.708,402.535 0.057,400.616 C0.574,400.532 0.924,401.204 1.503,401.556 C2.599,402.222 4.053,402.457 5.759,402.235 C5.815,399.13 5.61,396.063 5.587,392.962 C5.58,391.894 5.825,390.673 5.587,389.728 C5.423,389.064 4.773,388.976 4.397,388.451 C4.642,388.017 4.778,387.353 5.247,387.008 C5.506,386.811 5.995,386.791 6.439,386.574 C6.828,386.394 7.152,386.051 7.46,385.982 C8.076,385.848 8.795,386.082 9.503,385.982 C10.131,385.218 10.296,383.994 11.207,383.517 C11.073,382.585 11.371,382.091 11.63,381.558 C9.099,381.55 8.104,383.531 5.417,383.091 C5.031,381.448 6.957,381.4 7.376,380.279 C7.699,380.179 8.038,379.927 8.396,380.111 C9.507,379.207 10.236,377.923 12.056,377.726 C12.387,377.404 12.817,377.179 13.077,376.794 C12.933,375.448 13.001,374.384 12.398,373.473 C11.299,372.716 9.74,372.544 9.164,371.259 C8.591,369.988 8.976,368.171 8.993,366.669 C9.001,365.946 8.69,365.31 8.993,364.704 C9.714,365.005 10.482,365.259 11.123,365.643 C11.873,364.688 12.72,362.739 13.587,361.383 C14.101,360.584 14.273,359.899 15.376,360.453 C15.301,361.426 14.978,362.15 14.779,363.002 C17.058,362.529 17.414,360.135 18.782,358.746 C19.563,358.633 20.107,358.963 20.651,358.83 C20.663,359.938 20.687,360.539 20.735,361.641 C22.351,361.295 21.829,358.08 22.353,356.36 C23.39,354.903 24.366,353.385 26.355,352.878 C27.708,351.648 28.719,350.077 29.588,348.36 C29.727,347.37 29.768,346.276 30.184,345.557 C29.571,344.702 30.254,343.657 30.012,342.582 C30.624,342.195 31.112,341.687 31.715,341.303 C33.543,341.446 34.958,339.961 36.055,338.83 C36.458,338.797 36.67,339.016 36.993,338.83 C37.124,337.441 36.616,335.986 36.055,335.004 C38.18,332.279 39.828,329.07 40.48,324.877 C41.004,324.162 41.826,323.6 42.607,322.916 C43.721,321.949 44.439,320.811 46.181,320.791 C46.767,320.41 47.166,319.722 47.714,319.09 C48.173,318.557 48.847,317.99 49.248,317.385 C49.46,317.065 49.626,316.412 49.927,315.852 C50.248,315.252 50.683,314.782 50.779,314.153 C50.972,312.844 50.337,311.122 50.693,309.727 C49.695,308.186 48.177,306.754 48.31,304.194 C47.548,303.395 46.709,302.672 45.757,302.063 C47.335,300.409 46.751,296.597 48.48,295.088 C48.666,294.033 48.148,292.928 48.48,292.276 C47.261,290.52 45.049,289.755 43.375,288.452 C43.781,287.622 44.326,287.016 44.48,285.981 C44.686,284.581 43.758,283.129 44.057,281.727 C43.713,279.772 42.012,279.178 40.395,278.495 C40.135,278.173 40.219,277.6 40.141,277.302 C39.436,276.872 38.33,276.843 37.672,276.368 C37.596,275.669 38.201,275.448 38.268,274.749 C38.316,274.247 37.915,273.815 38.012,273.302 C38.106,272.82 39.033,272.349 39.375,271.855 C39.584,271.554 39.736,271.009 39.969,270.58 C40.279,270.01 40.777,269.455 40.992,268.961 C41.191,268.5 41.109,267.893 41.33,267.433 C41.908,266.231 43.588,265.495 44.141,264.45 C44.211,263.901 44.25,263.315 44.227,262.665 C43.531,262.058 42.764,261.948 42.268,261.132 C41.379,259.684 41.592,257.249 41.502,254.919 C41.818,254.36 42.256,253.917 42.863,253.642 C42.688,252.419 43.703,252.391 44.057,251.687 C47.666,252.435 47.783,249.181 49.332,247.773 C49.042,247.306 48.982,247.266 48.904,246.667 C48.607,244.378 48.904,241.735 48.904,239.179 C48.901,166.9 49.247,94.768 49.247,22.5 C49.247,17.089 49.479,11.184 49.247,6.246 C50.229,6.12 50.899,7.026 51.54,7.522 C52.27,8.044 53.182,8.379 53.84,8.968 C54.096,9.139 54.577,9.086 54.862,9.223 C56.088,9.911 56.959,11.386 58.352,12.035 C58.985,12.328 59.979,12.599 60.905,12.882 C61.747,13.145 62.706,13.538 63.541,13.647 C64.551,13.784 65.674,13.559 66.776,13.647 C69.1,13.834 71.922,14.274 74.52,14.246 C77.252,14.214 79.776,12.98 81.668,12.376 C85.094,11.863 88.108,10.346 91.03,9.139 C91.993,8.741 93.006,8.512 93.838,8.119 C94.959,7.59 96.04,6.957 97.157,6.415 C98.286,5.872 99.545,5.523 100.647,4.968 C101.858,4.358 102.844,3.243 104.137,2.587 C105.452,1.919 106.87,1.378 108.137,0.716 C108.455,0.548 108.783,0.319 109.071,0.034 C166.714,0.091 226.604,-0.076 284.729,0.119 C284.635,88.791 283.877,178.789 283.877,268.027 Z M283.877,268.027" id="Shape" sketch:type="MSShapeGroup"></path>
        </g>
    </g>
</svg>